<svg width="64" height="64" viewBox="0 0 64 64" fill="none" xmlns="http://www.w3.org/2000/svg"><path d="M20.904 42.53h6.778V22.75h-6.778v19.78Zm18.348-27.682-6.649 1.822v4.093h-2.898v4.98h2.898v8.908c0 3.075.627 5.157 1.87 6.459 1.064 1.112 2.898 1.916 5.086 1.916 1.917 0 3.525-.272 4.413-.627l-.048-5.122c-.674.13-1.064.177-2.01.177-2.047 0-2.674-1.206-2.674-3.833v-7.878h4.862v-4.98H39.24v-5.915h.012Zm-18.348 5.974h6.778v-6.033l-6.778.059v5.974Z" fill="#003A65"/><path d="M62 31.646c0-3.194-2.177-5.891-5.122-6.696C54.985 13.215 44.8 4.248 32.508 4.248 18.87 4.248 7.82 15.286 7.82 28.89c0 13.615 11.05 24.64 24.689 24.64 10.197 0 18.939-6.163 22.713-14.964 3.75-.07 6.778-3.147 6.778-6.92ZM32.509 50.029c-11.664 0-21.164-9.475-21.164-21.116 0-11.64 9.5-21.128 21.164-21.128 10.303 0 18.915 7.394 20.773 17.154-2.981.78-5.194 3.49-5.194 6.719 0 2.626 1.467 4.909 3.62 6.092-3.348 7.24-10.694 12.28-19.2 12.28ZM10.352 8.164A4.173 4.173 0 0 0 6.176 4C3.88 4 2 5.87 2 8.164a4.173 4.173 0 0 0 4.176 4.164 4.173 4.173 0 0 0 4.176-4.164Z" fill="#003A65"/><path d="M13.57 59.812a5.554 5.554 0 0 0 5.56-5.548 5.554 5.554 0 0 0-5.56-5.548 5.554 5.554 0 0 0-5.56 5.548 5.554 5.554 0 0 0 5.56 5.548Z" fill="#003A65"/></svg>