<svg viewBox="0 0 168 150" fill="none" xmlns="http://www.w3.org/2000/svg"><path fill-rule="evenodd" clip-rule="evenodd" d="M96.56.736c-3.008 1.485-4.208 5.98-2.346 8.79.796 1.202 21.109 23.646 43.997 48.612 5.019 5.475 9.125 10.147 9.125 10.383 0 .237-32.364.488-72.041.56l-72.041.13-1.433 1.603c-1.9 2.127-2.326 4.528-1.217 6.865.474 1 1.34 2.09 1.922 2.424.813.466 17.882.666 73.204.858l72.144.25-9.592 10.5c-30.854 33.773-43.294 47.516-44.068 48.684-1.652 2.493-.888 6.509 1.599 8.405 1.233.941 3.947 1.263 5.718.679 1.715-.566 4.246-3.277 44.827-48.018 10.85-11.963 20.122-22.361 20.603-23.108.481-.746.875-2.273.875-3.392 0-1.12-.394-2.646-.875-3.393-.803-1.245-23.028-25.886-52.016-57.67C108.518 6.853 102.704.834 102.024.525c-1.68-.766-3.636-.69-5.464.212Z" fill="currentColor"/></svg>