<svg viewBox="0 0 74 74" fill="none" xmlns="http://www.w3.org/2000/svg"><path fill-rule="evenodd" clip-rule="evenodd" d="M35.017.367c-1.536 1.026-1.7 2.746-1.7 17.834v15.283H17.603c-16.777 0-16.74-.005-17.53 2.484-.32 1.005.466 2.981 1.444 3.634.303.202 7.582.37 16.175.375l15.625.008V55.21c0 10.572.18 15.62.586 16.512.64 1.406 2.262 2.034 4.079 1.578 2.158-.542 2.335-1.912 2.335-18.09V39.984h15.715c16.777 0 16.74.005 17.53-2.483.32-1.005-.467-2.981-1.445-3.634-.302-.202-7.58-.37-16.175-.375l-15.625-.008V18.201C40.317.823 40.16 0 36.817 0c-.687 0-1.497.165-1.8.367Zm20.3 5.117c-.778.779-1 1.667-1 4v3h-3c-2.333 0-3.222.223-4 1-1.002 1.003-1.314 3.232-.607 4.344.59.928 2.96 1.657 5.39 1.657h2.217v2.963c0 2.627.154 3.085 1.354 4.029 1.509 1.186 3.456 1.03 4.521-.366.344-.45.625-2.125.625-3.722v-2.904h2.477c1.362 0 3.038-.256 3.725-.57 2.36-1.075 2.581-4.708.36-5.898-.548-.293-2.248-.532-3.779-.532h-2.783V9.263c0-2.763-.158-3.333-1.111-4-1.516-1.062-3.19-.978-4.389.221Zm-48.5 8c-1.25 1.25-1.292 3.581-.085 4.673.773.7 2.195.828 9.25.828 7.669 0 8.415-.08 9.335-1 .55-.55 1-1.563 1-2.25 0-.688-.45-1.7-1-2.25-.919-.92-1.666-1-9.25-1-7.583 0-8.33.08-9.25 1Zm1 36C6.26 51.042 6.57 52.74 8.87 55.234l2.053 2.227-2.053 2.332c-2.204 2.504-2.505 3.823-1.274 5.58 1.292 1.845 3.836 1.507 6.357-.845l2.097-1.956 2.123 1.956c2.861 2.638 5.22 2.679 6.57.114.875-1.663.748-2.014-1.666-4.595l-2.24-2.394 1.535-1.46c2.93-2.784 3.364-4.712 1.542-6.834-1.3-1.514-3.392-1.084-5.88 1.209l-2.26 2.083-2.122-2.083c-2.398-2.353-4.226-2.692-5.835-1.084Zm40.5 0c-1.199 1.2-1.283 2.873-.221 4.389.753 1.076 1.056 1.111 9.422 1.111 9.628 0 10.3-.22 10.3-3.386 0-2.77-1.142-3.114-10.362-3.114-7.472 0-8.22.082-9.139 1Zm0 11.5c-1.26 1.261-1.278 3.047-.044 4.57.935 1.154 1.14 1.18 9.198 1.18 7.403 0 8.348-.096 9.294-.952 1.335-1.209 1.36-3.49.052-4.797-.919-.92-1.666-1-9.25-1-7.583 0-8.33.08-9.25 1Z" fill="currentColor"/></svg>