<svg viewBox="0 0 80 66" fill="none" xmlns="http://www.w3.org/2000/svg"><path fill-rule="evenodd" clip-rule="evenodd" d="M5.74 10.923c-2.421 1.117-3.944 2.7-4.976 5.171C.108 17.662-.01 20.997 0 37.837c.01 18.269.086 20.054.934 21.891 1.117 2.42 2.7 3.944 5.17 4.976 1.601.669 5.805.773 30.994.763 27.262-.01 29.27-.07 31.14-.934 2.421-1.117 3.944-2.7 4.977-5.171 1.153-2.76 1.153-40.508 0-43.268-1.032-2.471-2.556-4.054-4.976-5.171C66.367 10.059 64.37 10 36.99 10c-27.382 0-29.378.059-31.25.923Zm60.65 6.655c.33.33.6 1.567.6 2.748v2.149L54.615 32.776c-6.807 5.666-13.1 10.617-13.985 11.002-2.057.895-5.224.895-7.282 0-.884-.385-7.177-5.336-13.983-11.002L6.99 22.475v-2.149c0-1.181.27-2.418.6-2.748.866-.866 57.933-.866 58.8 0ZM30.456 50.166c3.222 1.484 9.845 1.484 13.067 0 1.256-.578 7.05-5.021 12.875-9.874l10.592-8.823v12.905c0 9.37-.165 13.069-.6 13.504-.867.866-57.934.866-58.8 0-.436-.435-.6-4.135-.6-13.504V31.469l10.59 8.823c5.826 4.852 11.62 9.296 12.876 9.874Z" fill="currentColor"/><path d="M80 13c0 7.18-5.82 13-13 13s-13-5.82-13-13S59.82 0 67 0s13 5.82 13 13Z" class="fill-primary"/></svg>