<svg viewBox="0 0 168 55" fill="currentColor" xmlns="http://www.w3.org/2000/svg"><path d="M133.26 32.57h5.73V15.85h-5.73v16.72Zm15.51-23.4-5.62 1.54v3.46h-2.45v4.21h2.45v7.53c0 2.6.53 4.36 1.58 5.46.9.94 2.45 1.62 4.3 1.62 1.62 0 2.98-.23 3.73-.53l-.04-4.33c-.57.11-.9.15-1.7.15-1.73 0-2.26-1.02-2.26-3.24v-6.66h4.11v-4.21h-4.11v-5h.01Zm-15.51 5.05h5.73v-5.1l-5.73.05v5.05ZM15.79 32.16l3.09-9.9c.98-2.97 2.04-6.59 2.83-9.82h.11c0 3.69.11 7.38.23 10.42l.38 9.71h5.62l-1.4-25.36h-7.5l-2.71 8.43c-.83 2.82-1.7 6.17-2.41 9.11h-.11c-.57-2.97-1.36-6.17-2.15-9.07l-2.5-8.47H1.62L0 32.57h5.31l.45-9.63c.19-3.16.3-7.07.45-10.5h.08c.6 3.31 1.47 6.92 2.3 9.93l2.71 9.78h4.49v.01Zm31.29-.34-.75-3.88c-1.55.49-3.13.75-5.09.75-2.68 0-5.01-1.13-5.2-3.5h11.87c.08-.41.19-1.28.19-2.26 0-4.55-2.26-9.18-8.22-9.18-6.41 0-9.31 5.16-9.31 9.82 0 5.76 3.58 9.41 9.84 9.41 2.48.01 4.78-.41 6.67-1.16Zm-7.54-14.26c2.64 0 3.24 2.33 3.24 3.73H36c.15-1.55 1.13-3.73 3.54-3.73Zm23.37 4.82v10.2h5.73V21.66c0-5.42-2.83-7.9-6.6-7.9-3.05 0-4.94 1.77-5.69 2.94h-.11l-.26-2.52H51c.08 1.62.15 3.57.15 5.87v12.53h5.73V21.96c0-.53.08-1.05.23-1.43.38-1.05 1.32-2.14 2.9-2.14 2.07 0 2.9 1.62 2.9 3.99Zm10.52 3.53c0 2.6.53 4.36 1.58 5.46.9.94 2.45 1.62 4.3 1.62 1.62 0 2.98-.23 3.73-.53L83 28.13c-.57.11-.9.15-1.7.15-1.73 0-2.26-1.02-2.26-3.24v-6.66h4.11v-4.21h-4.11v-5l-5.62 1.54v3.46h-2.45v4.21h2.45v7.53h.01Zm21.33 7.08c4.94 0 9.73-3.09 9.73-9.82 0-5.53-3.77-9.41-9.42-9.41-5.92 0-9.84 3.8-9.84 9.75 0 5.94 4.14 9.48 9.53 9.48Zm.15-15.17c2.6 0 3.66 2.78 3.66 5.53 0 3.31-1.43 5.53-3.66 5.53-2.45 0-3.77-2.37-3.77-5.53 0-2.7 1.02-5.53 3.77-5.53Zm17.12-.26h-.15l-.19-3.39h-4.94c.07 1.58.15 3.35.15 6.06v12.34h5.73v-9.33c0-.45.04-.9.11-1.28.38-1.77 1.81-2.9 3.92-2.9.64 0 1.13.08 1.55.19v-5.42c-.42-.08-.68-.08-1.21-.08-1.77.01-4.03 1.14-4.97 3.81Z"/><path d="M168 23.37c0-2.7-1.84-4.98-4.33-5.66-1.6-9.92-10.21-17.5-20.6-17.5-11.53 0-20.87 9.33-20.87 20.83 0 11.51 9.34 20.83 20.87 20.83 8.62 0 16.01-5.21 19.2-12.65 3.17-.06 5.73-2.66 5.73-5.85Zm-24.93 15.54c-9.86 0-17.89-8.01-17.89-17.85 0-9.84 8.03-17.86 17.89-17.86 8.71 0 15.99 6.25 17.56 14.5-2.52.66-4.39 2.95-4.39 5.68 0 2.22 1.24 4.15 3.06 5.15-2.83 6.12-9.04 10.38-16.23 10.38ZM124.34 3.52c0-1.94-1.58-3.52-3.53-3.52-1.94 0-3.53 1.58-3.53 3.52s1.58 3.52 3.53 3.52c1.95 0 3.53-1.58 3.53-3.52Z" /><path d="M127.06 47.18c2.596 0 4.7-2.1 4.7-4.69 0-2.59-2.104-4.69-4.7-4.69s-4.7 2.1-4.7 4.69c0 2.59 2.104 4.69 4.7 4.69ZM4.88 46.83H1.16c-.1 0-.19.04-.26.12-.07.08-.1.18-.1.31 0 .11.03.21.1.29.07.08.15.11.26.11h3.72c.1 0 .18-.04.25-.11.07-.08.11-.17.11-.29 0-.12-.04-.23-.11-.31a.318.318 0 0 0-.25-.12Zm13.07-2.67a2.33 2.33 0 0 0-1.17-.31c-.41 0-.81.12-1.21.35-.4.23-.72.59-.97 1.08-.17-.42-.43-.76-.79-1.03-.35-.27-.77-.4-1.24-.4s-.86.11-1.18.34c-.32.22-.56.47-.72.75v-.66c0-.1-.04-.19-.13-.25a.538.538 0 0 0-.31-.09c-.12 0-.23.03-.32.09s-.14.15-.14.25v6.04c0 .1.05.18.14.26.09.08.2.11.32.11.13 0 .25-.04.34-.11.09-.08.14-.16.14-.26v-3.8c0-.39.08-.72.25-.99.17-.27.38-.47.64-.61s.52-.21.8-.21c.3 0 .57.08.82.23.25.15.45.36.59.63.15.27.22.57.22.91v3.85c0 .12.05.21.15.27.1.06.2.09.31.09.11 0 .22-.03.32-.09s.15-.15.15-.27v-3.87c0-.36.08-.67.25-.94.17-.26.38-.46.63-.61.25-.14.52-.21.79-.21s.52.07.77.21c.25.14.45.34.62.61.16.27.24.6.24 1v3.8c0 .1.05.18.14.26.09.08.2.11.32.11.13 0 .25-.04.34-.11.09-.08.14-.16.14-.26v-3.8c0-.57-.11-1.05-.34-1.45-.25-.4-.55-.7-.91-.91Zm6.6.02a2.759 2.759 0 0 0-3.68.98c-.25.4-.37.84-.37 1.31v1.6c0 .54.13 1.02.39 1.42.26.4.62.72 1.09.95.46.23.99.34 1.59.34.44 0 .82-.05 1.14-.16.32-.11.57-.24.74-.39.17-.15.26-.28.26-.39 0-.06-.02-.12-.05-.19a.488.488 0 0 0-.14-.18.323.323 0 0 0-.21-.08c-.1 0-.22.05-.34.14-.12.1-.28.19-.49.29-.21.1-.51.14-.89.14-.63 0-1.15-.17-1.56-.5-.41-.33-.62-.79-.62-1.36v-.53h3.23c.21 0 .41-.02.59-.06a.78.78 0 0 0 .46-.29c.12-.16.19-.42.19-.79 0-.5-.12-.95-.37-1.34-.23-.38-.56-.68-.96-.91Zm.3 2.63c-.1.06-.29.09-.57.09h-2.86v-.54c0-.32.08-.62.24-.88.16-.26.38-.47.65-.63.27-.16.57-.24.89-.24.35 0 .67.09.94.26a1.814 1.814 0 0 1 .85 1.54c.01.21-.04.34-.14.4Zm7.36-6.92a.552.552 0 0 0-.34-.09.63.63 0 0 0-.33.09c-.1.06-.14.15-.14.25v4.8c-.15-.28-.39-.53-.71-.75-.32-.22-.71-.34-1.18-.34s-.9.12-1.29.36-.7.56-.93.96c-.23.4-.34.85-.34 1.34v1.56c0 .47.11.91.34 1.33.23.42.54.75.93 1.01.39.25.81.38 1.26.38.44 0 .84-.11 1.19-.33.36-.22.61-.48.77-.77v.63c0 .1.04.18.13.26.09.08.19.11.3.11.14 0 .26-.04.34-.11.08-.08.12-.16.12-.26V40.14a.29.29 0 0 0-.12-.25Zm-.81 8.63c0 .14-.08.33-.23.55-.15.22-.36.42-.62.6s-.56.26-.91.26c-.31 0-.61-.09-.87-.26-.27-.18-.48-.41-.64-.69a1.84 1.84 0 0 1-.24-.9v-1.56c0-.3.08-.59.24-.87.16-.28.38-.5.64-.68.27-.18.56-.26.89-.26.29 0 .56.07.83.22.27.15.49.35.66.62.17.27.26.59.26.97v2h-.01Zm10.74-8.63a.552.552 0 0 0-.34-.09.63.63 0 0 0-.33.09c-.1.06-.14.15-.14.25v4.8c-.15-.28-.39-.53-.71-.75-.32-.22-.71-.34-1.18-.34s-.9.12-1.29.36-.7.56-.93.96c-.23.4-.34.85-.34 1.34v1.56c0 .47.11.91.34 1.33.23.42.54.75.93 1.01.39.25.81.38 1.26.38.44 0 .84-.11 1.19-.33.36-.22.61-.48.77-.77v.63c0 .1.04.18.13.26.09.08.19.11.3.11.14 0 .26-.04.34-.11.08-.08.12-.16.12-.26V40.14a.29.29 0 0 0-.12-.25Zm-.81 8.63c0 .14-.08.33-.23.55-.15.22-.36.42-.62.6s-.56.26-.91.26c-.31 0-.61-.09-.87-.26-.27-.18-.48-.41-.64-.69a1.84 1.84 0 0 1-.24-.9v-1.56c0-.3.08-.59.24-.87.16-.28.38-.5.64-.68.27-.18.56-.26.89-.26.29 0 .56.07.83.22.27.15.49.35.66.62.17.27.26.59.26.97v2h-.01Zm2.97-7.77a.637.637 0 0 0-.58.357.548.548 0 0 0 .14.643c.12.12.27.18.44.18.18 0 .33-.06.45-.18s.18-.26.18-.42c0-.16-.06-.3-.18-.41a.644.644 0 0 0-.45-.17Zm.34 3.28a.593.593 0 0 0-.34-.09c-.12 0-.23.03-.32.09s-.14.15-.14.25v6.04c0 .1.05.18.14.26.09.08.2.11.32.11.13 0 .25-.04.34-.11.09-.08.14-.16.14-.26v-6.04a.308.308 0 0 0-.14-.25Zm6.7-.48c-.17 0-.35.08-.53.23-.18.15-.34.38-.49.67-.21-.19-.46-.34-.74-.44-.29-.1-.6-.16-.93-.16-.5 0-.93.1-1.3.3-.37.2-.66.48-.86.83-.2.35-.3.76-.3 1.21v.54c0 .37.07.71.2 1.02.13.31.33.57.59.78-.21.1-.38.24-.51.39-.13.16-.2.37-.2.64 0 .28.07.49.22.64.15.15.34.26.56.35-.31.12-.6.31-.84.56-.25.25-.37.58-.37 1 0 .39.13.73.38 1.01s.6.5 1.03.66c.43.16.93.24 1.49.24.54 0 1.02-.08 1.44-.23.42-.15.75-.38.99-.68.24-.3.36-.67.36-1.12 0-.44-.11-.78-.32-1.01-.21-.24-.49-.41-.83-.53-.34-.11-.7-.19-1.07-.24-.38-.04-.73-.08-1.07-.12-.33-.04-.61-.1-.83-.2-.22-.1-.33-.25-.33-.46 0-.15.05-.27.14-.35.1-.08.2-.15.3-.21.32.16.69.24 1.1.24.49 0 .92-.1 1.29-.31.38-.2.67-.49.88-.85.21-.36.31-.77.31-1.21v-.54c0-.26-.03-.5-.1-.73-.07-.23-.17-.43-.3-.61.12-.22.26-.37.41-.46.15-.09.28-.14.39-.16.07-.02.12-.05.17-.11.05-.05.07-.12.07-.21s-.04-.17-.11-.25c-.04-.08-.15-.12-.29-.12Zm-4.22 7.65c.26-.2.55-.35.89-.46.22.03.48.06.78.09.3.03.59.08.87.14.28.07.51.18.7.34.19.16.28.39.28.69 0 .39-.17.7-.51.94-.34.24-.81.36-1.41.36-.62 0-1.11-.12-1.46-.36-.35-.24-.53-.55-.53-.93 0-.34.13-.61.39-.81Zm3.09-4.47c0 .48-.14.87-.41 1.19-.27.32-.65.48-1.14.48-.5 0-.88-.16-1.16-.49-.28-.32-.41-.72-.41-1.2v-.53c0-.47.14-.86.41-1.17.27-.31.66-.47 1.15-.47.5 0 .88.16 1.15.47.27.31.41.7.41 1.17v.55Zm6.08-5.98a.637.637 0 0 0-.58.357.548.548 0 0 0 .14.643c.12.12.27.18.44.18.18 0 .33-.06.45-.18s.18-.26.18-.42c0-.16-.06-.3-.18-.41a.644.644 0 0 0-.45-.17Zm.33 3.28a.593.593 0 0 0-.34-.09c-.12 0-.23.03-.32.09s-.14.15-.14.25v6.04c0 .1.05.18.14.26.09.08.2.11.32.11.13 0 .25-.04.34-.11.09-.08.14-.16.14-.26v-6.04c0-.11-.05-.19-.14-.25Zm6.1-2.53c.15-.26.35-.47.62-.63.26-.16.56-.24.88-.24h.24c.13 0 .23-.04.3-.13.07-.09.1-.18.1-.29 0-.11-.03-.21-.1-.3s-.17-.13-.3-.13h-.36c-.46 0-.88.12-1.27.36a2.646 2.646 0 0 0-1.28 2.27v7.91c0 .1.04.19.13.26s.19.1.31.1c.13 0 .25-.03.34-.1.1-.07.14-.15.14-.26v-5.63h2.05c.1 0 .19-.04.24-.12.06-.08.09-.17.09-.28 0-.1-.03-.18-.09-.26-.06-.08-.14-.11-.24-.11h-2.05v-1.58c.02-.3.1-.58.25-.84Zm6.46 2.35h-.5c-.31 0-.6.05-.84.16-.25.11-.46.25-.64.42-.18.17-.32.35-.43.54v-.7c0-.1-.04-.19-.13-.25a.538.538 0 0 0-.31-.09c-.12 0-.23.03-.32.09s-.14.15-.14.25v6.04c0 .1.05.18.14.26.09.08.2.11.32.11.13 0 .25-.04.34-.11.09-.08.14-.16.14-.26v-3.53c0-.44.09-.81.27-1.12.18-.31.42-.55.71-.71.29-.17.59-.25.91-.25h.5c.1 0 .19-.04.26-.13a.482.482 0 0 0 0-.61.41.41 0 0 0-.28-.11Zm4.96.33a2.759 2.759 0 0 0-3.68.98c-.25.4-.37.84-.37 1.31v1.6c0 .54.13 1.02.39 1.42.26.4.62.72 1.09.95.46.23.99.34 1.59.34.44 0 .82-.05 1.14-.16.32-.11.57-.24.74-.39.17-.15.26-.28.26-.39 0-.06-.02-.12-.05-.19a.488.488 0 0 0-.14-.18.323.323 0 0 0-.21-.08c-.1 0-.22.05-.34.14-.12.1-.28.19-.49.29-.21.1-.51.14-.89.14-.63 0-1.15-.17-1.56-.5-.41-.33-.62-.79-.62-1.36v-.53h3.23c.21 0 .41-.02.59-.06a.78.78 0 0 0 .46-.29c.12-.16.19-.42.19-.79 0-.5-.12-.95-.37-1.34a2.55 2.55 0 0 0-.96-.91Zm.31 2.63c-.1.06-.29.09-.57.09h-2.86v-.54c0-.32.08-.62.24-.88.16-.26.38-.47.65-.63.27-.16.57-.24.89-.24.35 0 .67.09.94.26a1.814 1.814 0 0 1 .85 1.54c0 .21-.05.34-.14.4Zm10.39-2.65a2.33 2.33 0 0 0-1.17-.31c-.41 0-.81.12-1.21.35-.4.23-.72.59-.97 1.08-.17-.42-.43-.76-.79-1.03-.35-.27-.77-.4-1.24-.4s-.86.11-1.18.34c-.32.22-.56.47-.72.75v-.66c0-.1-.04-.19-.13-.25a.538.538 0 0 0-.31-.09c-.12 0-.23.03-.32.09s-.14.15-.14.25v6.04c0 .1.05.18.14.26.09.08.2.11.32.11.13 0 .25-.04.34-.11.09-.08.14-.16.14-.26v-3.8c0-.39.08-.72.25-.99.17-.27.38-.47.64-.61s.52-.21.8-.21c.3 0 .57.08.82.23.25.15.45.36.59.63.15.27.22.57.22.91v3.85c0 .12.05.21.15.27.1.06.2.09.31.09.11 0 .22-.03.32-.09s.15-.15.15-.27v-3.87c0-.36.08-.67.25-.94.17-.26.38-.46.63-.61.25-.14.52-.21.79-.21s.52.07.77.21c.25.14.45.34.62.61.16.27.24.6.24 1v3.8c0 .1.05.18.14.26.09.08.2.11.32.11.13 0 .25-.04.34-.11.09-.08.14-.16.14-.26v-3.8c0-.57-.11-1.05-.34-1.45-.25-.4-.55-.7-.91-.91Zm5.5.55c.1 0 .17-.04.23-.11.06-.08.09-.17.09-.27s-.03-.2-.09-.27a.26.26 0 0 0-.23-.11h-1.86v-2.87c0-.1-.05-.19-.14-.25a.613.613 0 0 0-.64 0c-.1.06-.15.15-.15.25v7.52c0 .73.2 1.27.59 1.6.39.33.95.5 1.69.5h.4c.13 0 .24-.04.31-.13s.11-.19.11-.3c0-.11-.04-.21-.11-.29-.07-.08-.17-.12-.31-.12h-.4c-.5 0-.84-.09-1.04-.28-.2-.19-.3-.51-.3-.98v-3.88h1.85v-.01Zm1.83-3.96a.637.637 0 0 0-.58.357.548.548 0 0 0 .14.643c.12.12.27.18.44.18.18 0 .33-.06.45-.18s.18-.26.18-.42c0-.16-.06-.3-.18-.41a.644.644 0 0 0-.45-.17Zm.33 3.28a.593.593 0 0 0-.34-.09c-.12 0-.23.03-.32.09s-.14.15-.14.25v6.04c0 .1.05.18.14.26.09.08.2.11.32.11.13 0 .25-.04.34-.11.09-.08.14-.16.14-.26v-6.04c0-.11-.05-.19-.14-.25Zm6.72-4.14a.552.552 0 0 0-.34-.09.63.63 0 0 0-.33.09c-.1.06-.14.15-.14.25v4.8c-.15-.28-.39-.53-.71-.75-.32-.22-.71-.34-1.18-.34s-.9.12-1.29.36-.7.56-.93.96c-.23.4-.34.85-.34 1.34v1.56c0 .47.11.91.34 1.33.23.42.54.75.93 1.01.39.25.81.38 1.26.38.44 0 .84-.11 1.19-.33.36-.22.61-.48.77-.77v.63c0 .1.04.18.13.26.09.08.19.11.3.11.14 0 .26-.04.34-.11.08-.08.12-.16.12-.26V40.14a.25.25 0 0 0-.12-.25Zm-.8 8.63c0 .14-.08.33-.23.55-.15.22-.36.42-.62.6s-.56.26-.91.26c-.31 0-.61-.09-.87-.26-.27-.18-.48-.41-.64-.69a1.84 1.84 0 0 1-.24-.9v-1.56c0-.3.08-.59.24-.87.16-.28.38-.5.64-.68.27-.18.56-.26.89-.26.29 0 .56.07.83.22.27.15.49.35.66.62.17.27.26.59.26.97v2h-.01Zm6.36-4.34a2.758 2.758 0 0 0-3.68.98c-.25.4-.37.84-.37 1.31v1.6c0 .54.13 1.02.39 1.42.26.4.62.72 1.09.95.46.23.99.34 1.59.34.44 0 .82-.05 1.14-.16.32-.11.57-.24.74-.39.17-.15.26-.28.26-.39 0-.06-.02-.12-.05-.19a.493.493 0 0 0-.14-.18.324.324 0 0 0-.21-.08c-.1 0-.22.05-.34.14-.12.1-.28.19-.49.29-.21.1-.51.14-.89.14-.63 0-1.15-.17-1.56-.5-.41-.33-.62-.79-.62-1.36v-.53h3.23c.21 0 .41-.02.59-.06a.782.782 0 0 0 .46-.29c.12-.16.19-.42.19-.79 0-.5-.12-.95-.37-1.34a2.55 2.55 0 0 0-.96-.91Zm.31 2.63c-.1.06-.29.09-.57.09h-2.86v-.54c0-.32.08-.62.24-.88.16-.26.38-.47.65-.63.27-.16.57-.24.89-.24a1.746 1.746 0 0 1 1.564.92c.149.27.227.572.226.88 0 .21-.05.34-.14.4Zm6.3-2.6a2.37 2.37 0 0 0-1.27-.36c-.48 0-.88.11-1.2.34-.32.22-.56.47-.72.75v-.66c0-.1-.04-.19-.13-.25a.538.538 0 0 0-.31-.09c-.12 0-.23.03-.32.09s-.14.15-.14.25v6.04c0 .1.05.18.14.26.09.08.2.11.32.11.13 0 .25-.04.34-.11.09-.08.14-.16.14-.26v-3.8c0-.38.08-.7.25-.97.17-.27.38-.47.64-.62a1.65 1.65 0 0 1 1.71.04c.27.18.48.4.64.68.16.28.24.57.24.87v3.8c0 .12.05.22.15.28.1.06.2.09.31.09.12 0 .23-.03.33-.09s.14-.15.14-.28v-3.8c0-.49-.11-.94-.34-1.34-.23-.4-.54-.72-.92-.97Z" /></svg>