<svg viewBox="0 0 105 108" fill="none" xmlns="http://www.w3.org/2000/svg"><path d="M39.212 0c1.899.019 3.795.162 5.673.448a38.842 38.842 0 0 1 10.106 2.99 39.14 39.14 0 0 1 10.674 7.14 39.127 39.127 0 0 1 7.878 10.392 38.626 38.626 0 0 1 3.679 10.555c.793 4.123.911 8.376.352 12.536a38.653 38.653 0 0 1-3.399 11.454 39.05 39.05 0 0 1-8.004 11.173 39.12 39.12 0 0 1-12.048 8.004 39.067 39.067 0 0 1-14.911 3.06 39.064 39.064 0 0 1-14.975-2.878A39.096 39.096 0 0 1 3.95 55.94 38.626 38.626 0 0 1 .414 44.546c-.6-4.075-.548-8.245.154-12.304A38.647 38.647 0 0 1 3.95 21.81 39.12 39.12 0 0 1 22.497 3.637a38.847 38.847 0 0 1 15.71-3.63C38.543.002 38.877 0 39.213 0Zm-.44 10.072c-1.41.014-2.816.119-4.211.331a28.774 28.774 0 0 0-7.473 2.211 29.01 29.01 0 0 0-13.676 12.848 28.609 28.609 0 0 0-2.732 7.608 28.99 28.99 0 0 0-.332 9.657 28.644 28.644 0 0 0 2.44 8.312 28.993 28.993 0 0 0 14.944 14.379 28.903 28.903 0 0 0 11.04 2.262c3.794.023 7.58-.696 11.091-2.129a29.015 29.015 0 0 0 15.118-14.196 28.555 28.555 0 0 0 2.538-8.268 28.98 28.98 0 0 0-.21-9.666 28.6 28.6 0 0 0-2.72-7.803 29.004 29.004 0 0 0-13.44-12.857 28.751 28.751 0 0 0-7.434-2.3 30.012 30.012 0 0 0-4.943-.389Z" fill="currentColor"/><path d="M61.686 59.406a5.046 5.046 0 0 1 3.019 1.273c.069.062.134.127.202.19l38.617 38.535c.193.203.376.407.538.634.324.452.571.958.73 1.49a5.054 5.054 0 0 1-.501 4.014 5.043 5.043 0 0 1-4.128 2.454 5.06 5.06 0 0 1-3.36-1.1c-.195-.154-.236-.201-.416-.371L57.772 67.993a5.004 5.004 0 0 1-1.268-2.124 5.01 5.01 0 0 1 .04-3.007 5.084 5.084 0 0 1 2.705-3.015 5.096 5.096 0 0 1 1.606-.427c.246-.024.307-.02.555-.023l.278.01h-.002Z" fill="currentColor"/></svg>