<svg viewBox="0 0 100 100" fill="none" xmlns="http://www.w3.org/2000/svg"><path fill-rule="evenodd" clip-rule="evenodd" d="M17.152 2.157c-11.704 2.76-12.364 3.002-14.44 5.3-2.42 2.678-2.997 5.179-2.595 11.25 1.102 16.63 5.493 29.84 14.227 42.805C24.45 76.514 38.616 87.944 54.894 94.23c10.483 4.049 27.809 6.78 33.39 5.264 2.677-.728 5.291-2.99 6.26-5.419 1.507-3.776 5.429-22.16 5.076-23.794-.508-2.352-2.03-5.105-3.437-6.21-.686-.54-6.148-3.093-12.139-5.673-9.76-4.204-11.203-4.69-13.893-4.684-3.948.01-5.65 1.094-9.747 6.202l-3.219 4.013-1.266-.816c-3.822-2.465-8.781-6.569-11.88-9.83-3.347-3.525-7.637-9.264-7.637-10.22 0-.245 1.826-1.975 4.058-3.843 4.756-3.982 6.196-6.507 5.824-10.213-.257-2.562-8.803-23.18-10.504-25.343-1.351-1.717-5.63-3.707-7.878-3.663-.962.018-5.8.989-10.75 2.156Zm15.634 16.928c2.264 5.295 4.11 9.964 4.1 10.375-.009.41-1.94 2.21-4.292 3.997-2.351 1.787-4.955 4.016-5.786 4.952-1.958 2.206-1.747 3.595 1.344 8.83 6.189 10.48 14.464 18.733 24.551 24.481 5.476 3.12 6.845 3.063 10.024-.423a135.676 135.676 0 0 0 4.675-5.47c1.238-1.546 2.49-2.913 2.783-3.04.293-.125 4.905 1.643 10.25 3.93 7.185 3.075 9.755 4.4 9.862 5.083.118.758-.968 5.967-3.673 17.607l-.278 1.2-5.663-.304c-13.613-.73-26.304-5.067-38-12.989-5.955-4.033-16.105-14.183-20.138-20.139-7.922-11.695-12.26-24.386-12.99-37.999l-.303-5.663 1.2-.28 8.45-1.98c3.988-.933 7.817-1.72 8.51-1.747 1.169-.046 1.55.635 5.374 9.579Z" fill="currentColor"/></svg>