<svg viewBox="0 0 102 102" fill="none" xmlns="http://www.w3.org/2000/svg">
<path d="M3.34123 8.12102L3.34125 8.121C3.86371 7.54279 4.32335 7.06362 4.90493 6.64211C5.48944 6.21849 6.17677 5.86727 7.14927 5.51033C9.07234 4.8045 12.2008 4.04614 18.0375 2.67006L18.1522 3.15672L18.0375 2.67006C20.5172 2.08545 22.9696 1.54985 24.9242 1.15779C25.9013 0.961819 26.7565 0.8012 27.4298 0.688184C28.0894 0.577481 28.6087 0.506292 28.8924 0.500812L3.34123 8.12102ZM3.34123 8.12102C2.08447 9.51199 1.28791 10.8812 0.869085 12.6971C0.455475 14.4904 0.41664 16.6939 0.618325 19.7398L0.618327 19.7398C1.72576 36.4518 6.14245 49.748 14.9291 62.7911L15.3437 62.5117M3.34123 8.12102L15.3437 62.5117M15.3437 62.5117L14.9291 62.7911C25.0915 77.8751 39.3364 89.3719 55.7131 95.6962C60.9971 97.737 67.9858 99.4395 74.3491 100.443C77.5325 100.945 80.5688 101.273 83.1656 101.38C85.7494 101.486 87.9423 101.376 89.4148 100.976C92.2332 100.21 94.9774 97.845 96.0086 95.2605C96.7812 93.3246 98.1466 87.7385 99.2685 82.4792C99.8317 79.839 100.337 77.2625 100.68 75.241C100.852 74.2309 100.984 73.354 101.062 72.6746C101.1 72.3353 101.127 72.0392 101.137 71.7974C101.147 71.5695 101.145 71.3455 101.108 71.1752C100.843 69.9438 100.315 68.6218 99.6759 67.4663C99.0407 66.3183 98.2697 65.2887 97.4924 64.6772L97.1895 65.0623L97.4923 64.6772C97.2731 64.5048 96.7515 64.2205 96.0654 63.8731C95.3566 63.5143 94.417 63.0615 93.3146 62.5464C91.109 61.5158 88.241 60.2306 85.242 58.939C75.5182 54.7508 73.9667 54.2074 71.15 54.2142H71.1499C69.1223 54.2196 67.6047 54.5019 66.065 55.4815C64.5566 56.4413 63.0617 58.0498 61.0142 60.6029L58.0773 64.2647M15.3437 62.5117L58.0773 64.2647M58.0773 64.2647L57.1897 63.6925C57.1897 63.6925 57.1897 63.6925 57.1897 63.6925C53.4008 61.2493 48.4726 57.1707 45.4018 53.9384C43.7444 52.1934 41.8477 49.8932 40.3659 47.9105C39.625 46.9191 38.9931 46.0142 38.5488 45.303C38.3261 44.9465 38.1558 44.647 38.0429 44.4143C37.9893 44.3037 37.952 44.2152 37.9285 44.1477C37.9676 44.0988 38.0215 44.0361 38.0919 43.9589C38.286 43.746 38.5739 43.4579 38.938 43.1129C39.6643 42.4249 40.6707 41.5323 41.7807 40.6031C44.1714 38.6019 45.7763 36.9291 46.7295 35.2579C47.6957 33.5637 47.9767 31.8993 47.7817 29.9573C47.7435 29.5757 47.5638 28.9233 47.3049 28.1183C47.0401 27.2952 46.6757 26.2636 46.2425 25.0967C45.3758 22.7621 44.2278 19.871 43.0356 16.9946C41.8433 14.1183 40.605 11.2522 39.5572 8.96784C39.0335 7.82602 38.5558 6.82603 38.1542 6.04132C37.7599 5.27094 37.4199 4.66937 37.1727 4.35508L37.1727 4.35503C36.4231 3.40234 34.928 2.43505 33.3878 1.71873C31.8458 1.00157 30.1308 0.476617 28.8926 0.500809L58.0773 64.2647ZM33.3265 20.2813L33.3265 20.2813C31.409 15.7957 30.3704 13.4216 29.6674 12.1689C29.3134 11.538 29.0779 11.2554 28.9048 11.1242C28.7705 11.0224 28.658 10.9969 28.4309 11.0058C28.2981 11.0111 27.9642 11.0583 27.4378 11.1519C26.9252 11.243 26.2618 11.3721 25.4929 11.53C23.9558 11.8457 22.0062 12.2747 20.0162 12.7406M33.3265 20.2813L27.4337 39.0774C26.9275 39.6477 26.5305 40.1988 26.2924 40.799C26.0497 41.4105 25.9829 42.0449 26.0923 42.7635C26.3039 44.1529 27.1858 45.892 28.7217 48.493C34.9522 59.0451 43.2888 67.3609 53.4557 73.1546C54.8286 73.937 55.9655 74.5328 56.947 74.9251C57.9292 75.3177 58.7876 75.5199 59.5977 75.4857C61.2468 75.4162 62.5083 74.3759 64.0967 72.6341L63.7272 72.2972L64.0967 72.6341C65.4374 71.1637 67.5484 68.6941 68.7926 67.1397C69.4056 66.3738 70.0208 65.654 70.5165 65.1126C70.7648 64.8413 70.9791 64.6192 71.1459 64.4598C71.2162 64.3926 71.2747 64.3397 71.3214 64.3004C71.336 64.3037 71.3521 64.3075 71.3699 64.3119C71.5162 64.3482 71.7273 64.4113 72.0017 64.5018C72.5478 64.6819 73.3103 64.9594 74.2364 65.3145C76.0868 66.0239 78.57 67.0352 81.238 68.1769C84.8307 69.7142 87.2546 70.8078 88.7909 71.5996C89.5612 71.9966 90.0898 72.3084 90.4265 72.5538C90.5952 72.6767 90.7003 72.772 90.7612 72.8414C90.7848 72.8683 90.7978 72.8867 90.8043 72.8971C90.8045 72.8995 90.8046 72.9021 90.8047 72.9049C90.805 72.9124 90.8052 72.9209 90.8054 72.9304C90.8055 72.9451 90.8054 72.9622 90.8049 72.9821C90.8032 73.0485 90.7974 73.136 90.7863 73.2473C90.7642 73.47 90.7227 73.7695 90.6598 74.153C90.5341 74.9191 90.3266 75.9968 90.0296 77.4204C89.436 80.2665 88.4893 84.4741 87.1372 90.2936L87.1372 90.2937L86.9535 91.085L81.7095 90.8039C68.1906 90.0795 55.5873 85.7727 43.9641 77.9002L43.6837 78.3142L43.9641 77.9002C41.025 75.9096 37.0246 72.3895 33.247 68.6119C29.4695 64.8343 25.9493 60.834 23.9587 57.8948L23.5447 58.1752L23.9587 57.8948C16.0862 46.2717 11.7795 33.6684 11.055 20.1495L10.7739 14.9047L11.566 14.7196L11.5662 14.7196C12.2262 14.565 16.0287 13.6746 20.0162 12.7406M33.3265 20.2813C34.4571 22.9256 35.4826 25.4122 36.2236 27.2875C36.5943 28.2256 36.8926 29.0075 37.0971 29.5784C37.1995 29.8645 37.2766 30.0926 37.3272 30.2588C37.3464 30.3217 37.3608 30.3726 37.371 30.4122C37.3308 30.475 37.2636 30.564 37.1637 30.68C36.9617 30.9145 36.6608 31.2197 36.2781 31.5761C35.5149 32.2869 34.4574 33.1727 33.2917 34.0586L33.2917 34.0587M33.3265 20.2813L33.2917 34.0587M20.0162 12.7406L19.9022 12.2537M20.0162 12.7406L19.9022 12.2537M19.9022 12.2537C15.9147 13.1877 12.1122 14.0782 11.4522 14.2327M19.9022 12.2537C23.8897 11.3202 27.7187 10.5337 28.4112 10.5062L11.4522 14.2327M11.4522 14.2327L10.2522 14.5132L11.4522 14.2327ZM33.2917 34.0587C30.9397 35.8465 28.3005 38.1006 27.4338 39.0773L33.2917 34.0587ZM37.4025 30.3565C37.4026 30.3564 37.4022 30.3575 37.4012 30.3597C37.4019 30.3577 37.4024 30.3566 37.4025 30.3565Z" fill="currentColor" stroke="currentColor"/>
</svg>
