<svg viewBox="0 0 192 192" fill="none" xmlns="http://www.w3.org/2000/svg"><path fill-rule="evenodd" clip-rule="evenodd" d="M90.353.094c-15.473 1.487-24.927 3.946-36 9.363C37.444 17.73 25.306 28.447 14.9 44.294c-3.086 4.7-8.256 15.454-10.015 20.833-5.582 17.074-6.41 35.999-2.324 53.109 4.016 16.815 13.129 33.065 25.395 45.284 26.59 26.49 66.388 35.133 101.398 22.022 29.805-11.162 53.098-37.659 59.774-67.998 4.52-20.536 2.773-40.308-5.279-59.75-1.635-3.949-4.051-8.367-7.622-13.94-14.759-23.035-39.487-38.976-66.373-42.787-5.305-.752-16.161-1.294-19.5-.973Zm19.13 12.956c12.278 1.99 21.862 5.859 33.87 13.674 6.045 3.934 17.316 14.941 20.856 20.369 7.754 11.887 11.712 21.448 14.262 34.451 1.24 6.322 1.239 22.169-.001 28.533-5.236 26.879-20.088 47.184-43.988 60.14-7.026 3.809-16.198 6.867-25.177 8.392-7.487 1.273-20.782 1.166-28.292-.227-19.368-3.593-37.97-14.262-49.353-28.309-13.096-16.159-19.673-34.306-19.673-54.279 0-16.942 4.843-32.892 14.271-47 13.74-20.558 35.97-33.796 61.345-36.527 5.026-.541 16.171-.142 21.88.783ZM70.816 54.804c-2.393 1.184-3.909 3.063-4.664 5.782-.755 2.72-.758 66.685-.003 70.204.978 4.561 5.606 7.573 10.393 6.765 1.429-.242 10.102-5.272 29.188-16.927 14.935-9.121 27.787-17.082 28.559-17.691 4.321-3.408 4.383-10.656.119-13.871-2.902-2.189-55.044-33.931-56.805-34.581-2.507-.926-4.457-.835-6.787.319Zm52.188 40.738c-.479.419-44.229 27.41-44.758 27.613-.519.199-.643-5.111-.643-27.505V67.9l22.776 13.755c12.526 7.565 22.707 13.815 22.625 13.887Z" fill="currentColor"/></svg>