<svg viewBox="0 0 523 377" fill="none" xmlns="http://www.w3.org/2000/svg">
<path d="M518.76 258.68L400.047 284.462C399.792 284.519 399.547 284.581 399.234 284.717L239.888 319.295C239.632 319.353 239.388 319.415 239.075 319.551L229.898 321.545L234.58 292.837L522.994 232.468L518.76 258.68ZM104.493 178.035L81.5921 156.186L102.685 147.316L117.545 172.54L104.493 178.035ZM74.7175 69.3685V50.5818L219.531 287.822L216.099 308.983L74.7175 69.3685ZM218.092 347.504L244.248 334.275L345.431 312.306L220.977 376.405L218.092 347.504ZM291.3 0.277832L516.5 217.851L231.513 277.455L79.8335 28.9218L291.3 0.277832ZM75.4735 101.262L94.6921 133.788L64.5521 146.398H64.4949C63.9323 146.653 63.4948 147.018 63 147.398C62.625 147.653 62.1875 147.841 61.9375 148.153C61.9375 148.153 61.8803 148.153 61.8803 148.21C61.625 148.466 61.5678 148.773 61.3178 149.085C60.9428 149.648 60.5053 150.148 60.2553 150.773C60.0678 151.216 60.0678 151.705 59.9428 152.205C59.823 152.705 59.6875 153.205 59.6875 153.7C59.6875 154.377 59.875 155.012 60.0625 155.695C60.1198 156.007 60.1198 156.314 60.25 156.627V156.684C60.3073 156.804 60.3698 156.872 60.4375 156.939C60.8125 157.752 61.3125 158.372 61.8698 158.992C61.9271 159.049 61.9896 159.179 62.0573 159.247L97.3226 192.825C97.4424 192.945 97.6351 193.013 97.7653 193.081C98.2653 193.523 98.8278 193.893 99.4528 194.143C99.708 194.263 99.8955 194.398 100.13 194.456C100.942 194.768 101.817 194.956 102.692 194.956C103.369 194.956 104.005 194.7 104.687 194.513C105 194.456 105.364 194.456 105.75 194.326L125.468 186.091L212.104 332.944L211.104 333.444L0.331055 132.724L75.4735 101.262ZM1.00415 154.945L202.297 346.611L204.428 367.961L5.86774 173.107L1.00415 154.945ZM335.311 92.9085C335.623 92.8512 335.931 92.6533 336.243 92.596C336.743 92.4762 337.243 92.3408 337.675 92.096C338.175 91.8408 338.608 91.5335 339.05 91.1637C339.306 90.9762 339.613 90.8512 339.863 90.6012C339.983 90.4814 339.983 90.346 340.118 90.2262C340.493 89.8512 340.681 89.3512 340.931 88.9137C341.186 88.471 341.431 88.0387 341.55 87.6012C341.67 87.1585 341.738 86.7262 341.806 86.2263C341.863 85.6638 341.925 85.1065 341.925 84.5388C341.925 84.419 341.983 84.2263 341.925 84.0961C341.868 83.7836 341.67 83.5336 341.613 83.2211C341.493 82.6586 341.3 82.1586 341.05 81.6533C340.795 81.2106 340.55 80.8408 340.175 80.4086C339.92 80.096 339.863 79.7888 339.556 79.5336L298.676 40.0282C298.556 39.9084 298.363 39.8407 298.233 39.7157C297.858 39.4032 297.478 39.2157 297.045 38.9605C296.545 38.7053 296.113 38.398 295.613 38.2834C295.17 38.1636 294.681 38.0959 294.238 38.0282C293.738 37.9709 293.176 37.9084 292.67 37.9084C292.483 37.9084 292.358 37.8511 292.228 37.9084L138.188 58.7471H138.13C137.63 58.8044 137.198 59.0596 136.698 59.2471C136.198 59.4346 135.636 59.5023 135.203 59.8096H135.136C134.823 59.9971 134.693 60.2523 134.459 60.4867C133.959 60.9294 133.396 61.2992 132.964 61.8616C132.651 62.3043 132.464 62.7939 132.287 63.2939C132.099 63.7366 131.787 64.1064 131.724 64.6064C131.537 65.3616 131.537 66.1012 131.604 66.8564C131.604 67.1116 131.547 67.3564 131.547 67.6116V67.6689C131.604 67.9241 131.735 68.2314 131.802 68.4814C131.99 69.1585 132.177 69.8563 132.557 70.4762C132.615 70.5335 132.557 70.596 132.615 70.6637L158.016 112.237C158.459 112.914 158.948 113.482 159.511 113.982C159.631 114.102 159.766 114.169 159.886 114.294C160.386 114.737 161.006 115.05 161.573 115.294C161.761 115.414 162.016 115.482 162.193 115.55C162.948 115.805 163.761 115.992 164.558 115.992H164.615C164.927 115.992 165.292 115.992 165.615 115.935L335.311 92.9085ZM152.244 72.6898L290.684 53.9032L317.277 79.5485L168.731 99.6418L152.244 72.6898Z" fill="currentColor"/>
</svg>
