<svg viewBox="0 0 187 187" fill="none" xmlns="http://www.w3.org/2000/svg"><path fill-rule="evenodd" clip-rule="evenodd" d="M80.74.783c-11.143 1.688-21.383 4.975-30.5 9.791C4.88 34.537-12.931 89.801 9.99 135.466c7.16 14.265 17.982 26.479 31.617 35.684 12.59 8.5 26.284 13.53 41.817 15.359 6.96.819 20.134.329 27.281-1.014 28.524-5.363 53.597-24.268 66.354-50.03 10.991-22.195 12.674-48.589 4.639-72.724-9.95-29.886-35.975-53.425-66.707-60.335C104.085-.046 90.469-.69 80.741.783Zm18.053 12.494c7.243 2.265 14.858 10.586 20.493 22.391 2.258 4.73 5.954 15.028 6.701 18.672l.333 1.625H60.722l.323-1.375c1.049-4.451 4.983-15.31 7.077-19.532C73.095 25.032 79.385 17.672 85.71 14.48c4.941-2.494 8.045-2.78 13.083-1.203Zm-37.32 8.663c-4.727 7.306-9.61 18.962-12.371 29.525l-1.111 4.25-13.178.133-13.177.134 1.38-2.384c6.687-11.554 15.69-21.07 26.76-28.286 4.218-2.75 13.452-7.526 13.826-7.152.106.105-.853 1.806-2.13 3.78Zm67.382-1.467c13.977 6.921 27.014 18.956 34.55 31.894 1.01 1.733 1.836 3.252 1.836 3.375 0 .122-5.842.223-12.981.223h-12.981l-.54-2.125c-3.028-11.901-8.875-25.592-14.78-34.603-.458-.7-.684-1.272-.501-1.272.182 0 2.611 1.129 5.397 2.508ZM44.817 73.34c-.992 6.758-.992 33.495 0 40.257l.717 4.882-14.758-.132-14.757-.132-1.146-4.479c-2.54-9.932-3.201-20.597-1.889-30.46.64-4.809 2.483-13.409 3.093-14.436.123-.206 6.8-.375 14.839-.375h14.616l-.715 4.875Zm84.61-3.25c2.025 11.078 2.025 35.672 0 46.75l-.298 1.625h-71.24l-.7-5.375c-.456-3.51-.698-10.319-.698-19.625s.242-16.115.699-19.625l.698-5.375h71.241l.298 1.625Zm42.972 3.75c3.188 13.068 3.188 26.182 0 39.25l-1.312 5.375h-14.673c-11.411 0-14.671-.139-14.663-.625.005-.344.351-3.438.768-6.875.469-3.873.758-10.528.758-17.5 0-6.972-.289-13.627-.758-17.5-.417-3.438-.763-6.531-.768-6.875-.008-.486 3.252-.625 14.663-.625h14.673l1.312 5.375ZM48.276 132.465l2.127 7.25c2.366 8.072 6.275 17.171 10.144 23.612 1.754 2.92 3.1 5.397 2.994 5.504-.433.433-12.835-6.374-16.896-9.272-9.412-6.718-17.707-15.922-23.638-26.228l-1.371-2.383 13.136.133 13.136.134.368 1.25Zm77.69.125c-.749 3.433-4.396 13.343-6.675 18.139-2.966 6.241-6.146 11.105-10.041 15.355-10.158 11.085-20.253 11.33-30.733.745-4.631-4.679-6.954-8.019-10.387-14.941-2.089-4.212-6.17-15.452-7.097-19.548l-.311-1.375h65.598l-.354 1.625Zm39.275-1.402c0 .123-.83 1.641-1.844 3.375-7.917 13.531-20.038 24.711-34.614 31.929-2.826 1.399-5.209 2.472-5.296 2.383-.086-.088 1.167-2.298 2.785-4.91 4.81-7.766 9.631-19.704 12.468-30.875l.539-2.125h12.981c7.139 0 12.981.1 12.981.223Z" fill="currentColor"/></svg>