<svg viewBox="0 0 250 200" fill="none" xmlns="http://www.w3.org/2000/svg"><path fill-rule="evenodd" clip-rule="evenodd" d="M73.11.281C58.172 1.704 43.52 6.517 32.74 13.542 17.533 23.452 7.988 35.074 3.154 49.568c-6.798 20.378-2.49 41.932 11.8 59.018 1.186 1.419 2.156 2.798 2.156 3.065 0 .694-4.263 8.305-6.637 11.849-1.958 2.923-7.219 9.753-7.899 10.257-1.31.969-2.46 4.009-2.462 6.508-.002 3.622 1.226 5.851 4.267 7.742 2.292 1.425 2.655 1.495 7.271 1.396 9.343-.198 19.98-2.507 29.535-6.41 5.238-2.14 12.773-5.802 15.63-7.596 1.401-.879 1.619-.88 5.75-.038 8.116 1.655 16.374 2.153 24.463 1.476 23.813-1.993 42.732-10.406 57.087-25.388 9.797-10.224 15.251-21.085 17.209-34.271 1.615-10.879.429-20.654-3.808-31.385-7.891-19.982-29.661-37.44-53.656-43.03C93.98.46 81.663-.534 73.11.281Zm15.895 12.493c6.606.704 11.951 1.796 17.605 3.596 26.988 8.592 44.036 30.164 42.869 54.24-1.193 24.603-21.291 45.464-49.938 51.835-13.75 3.058-28.77 2.891-39.75-.44-3.522-1.069-3.86-.995-7.875 1.714-4.478 3.022-11.256 6.48-17.134 8.742-5.889 2.266-18.172 5.022-18.172 4.078 0-.12 1.342-2.089 2.983-4.375 1.64-2.287 5.227-8.416 7.97-13.62l4.99-9.464-3.952-4.174c-5.148-5.439-8.036-9.229-10.473-13.748-6.019-11.157-7.305-22.49-3.99-35.151 4.947-18.9 21.917-34.41 44.324-40.515 10.317-2.81 20.863-3.749 30.543-2.718Zm85.605 55.733v6.25l2.125.003c3.443.004 11.764 1.396 16.875 2.822 17.501 4.881 31.252 16.062 38.522 31.322 3.147 6.604 4.512 12.443 4.817 20.603.506 13.517-2.428 22.051-12.257 35.643l-2.996 4.143 3.473 5.607c1.911 3.084 4.492 7.013 5.737 8.732 2.07 2.858 2.17 3.125 1.169 3.125-2.46 0-13.108-2.743-18.869-4.86l-6.153-2.262-6.132 2.28c-8.055 2.996-12.705 4.179-19.209 4.887-15.214 1.654-31.295-2.219-44.102-10.622-4.512-2.96-13.351-11.896-16.241-16.417-2.455-3.842-5.14-9.332-6.259-12.799-.347-1.077-.712-2.101-.81-2.276-.099-.176-1.926.204-4.06.845-2.134.64-4.821 1.407-5.971 1.704l-2.092.54 1.218 3.581c5.877 17.28 19.593 32.357 36.964 40.634 14.337 6.831 32.379 9.239 48.468 6.471 4.531-.78 12.022-2.987 16.162-4.762l2.274-.974 3.548 1.465c9.535 3.936 26.189 6.593 31.791 5.072 3.004-.816 6.29-4.084 6.791-6.754.643-3.43-.439-5.894-5.466-12.442-2.56-3.334-5.283-7.018-6.052-8.186l-1.398-2.125 2.345-3.495c14.342-21.376 14.253-49.053-.229-71.255-3.467-5.315-13.391-15.16-19.249-19.096-11.241-7.551-23.388-11.751-37.984-13.133-3.025-.286-5.781-.52-6.125-.52-.466-.001-.625 1.582-.625 6.249Z" fill="currentColor"/></svg>