<svg viewBox="0 0 170 170" fill="none" xmlns="http://www.w3.org/2000/svg"><path fill-rule="evenodd" clip-rule="evenodd" d="M131.5.235c-7.36.44-15.136 1.853-21 3.818C95.526 9.07 80.788 21.158 69.281 37.857l-3.359 4.875H28.16l-3.029 1.514c-5.06 2.528-6.223 4.235-15.529 22.8C4.933 76.362.903 84.77.646 85.732c-.902 3.384.633 6.823 3.907 8.75 1.604.946 2.87 1.015 23.197 1.276 20.335.26 21.676.334 24.75 1.361 9.821 3.283 17.561 11.141 20.796 21.113.78 2.404.927 5.491 1.173 24.5.315 24.393.223 23.8 4.054 25.953 3.597 2.021 4.264 1.8 23.754-7.876 19.835-9.847 20.866-10.566 23.643-16.489l1.33-2.838.158-18.85.156-18.851 4.094-2.73c5.747-3.834 13.177-10.16 17.402-14.817 15.321-16.886 20.548-32.008 20.567-59.501.006-9.713-1.021-18.879-2.419-21.583-1.092-2.111-2.918-2.782-10.518-3.865C147.982.045 140.158-.28 131.5.235Zm24.75 11.368 2 .395.65 5.242c.434 3.496.573 8.823.418 15.992-.199 9.197-.414 11.519-1.487 16.071-2.955 12.535-8.396 21.726-19.007 32.11-8.822 8.633-20.608 16.07-44.879 28.319l-10.805 5.454-1.33-3.391C77.876 101.77 68.49 92.368 58.508 88.451 56.579 87.694 55 87.022 55 86.958c0-.918 15.275-30.187 19.037-36.476 6.115-10.226 9.735-14.954 16.276-21.258 7.526-7.254 14.092-11.567 22.009-14.457 3.669-1.338 11.637-3.233 15.678-3.727 2.766-.339 26.033.125 28.25.563Zm-37.662 18.164c-5.822 1.146-10.249 4.586-12.782 9.932-1.403 2.96-1.556 3.75-1.553 8.033.004 6.02 1.261 9.47 4.697 12.895 3.044 3.034 6.289 4.614 10.807 5.265 8.511 1.227 16.187-3.37 19.243-11.519 1.579-4.21 1.286-10.678-.676-14.954-2.327-5.073-6.683-8.37-12.724-9.632-2.982-.624-3.928-.627-7.012-.02Zm7.662 11.395c3.224 1.836 4.353 7.772 2.115 11.121-2.119 3.172-6.202 4.285-9.674 2.638-4.51-2.14-5.59-8.491-2.115-12.448 2.453-2.794 6.183-3.3 9.674-1.31ZM52.752 67.858c-3.965 8.043-7.546 15.243-7.957 16l-.748 1.374H28.274c-8.676 0-15.774-.147-15.774-.328 0-.18 3.28-6.761 7.29-14.625 4.899-9.605 7.805-14.748 8.857-15.672l1.565-1.375H59.96l-7.208 14.626ZM27.25 107.13c-7.666 2.291-15.156 8.543-19.449 16.232-4.745 8.498-7.775 24.945-7.796 42.301L0 169.846l10.375-.24c15.25-.353 24.833-2.239 33.875-6.668 8.15-3.991 15.135-11.116 17.784-18.139 4.124-10.933-1.158-26.893-11.096-33.529-6.254-4.176-17.178-6.085-23.688-4.139ZM117 124.079c0 13.951-.288 16.318-2.199 18.095-.794.738-29.04 15.544-29.676 15.556-.069.001-.125-7.175-.125-15.947v-15.949l15.609-7.763c8.585-4.269 15.785-7.654 16-7.521.215.133.391 6.221.391 13.529Zm-76.657-6.094c10.022 3.016 15.414 15.292 10.976 24.987-2.741 5.987-10.178 11.266-19.319 13.713-8.049 2.154-21.507 3.358-21.495 1.922.003-.343.24-3.325.526-6.625.846-9.726 2.256-15.392 5.749-23.086 4.463-9.832 13.398-13.97 23.563-10.911Z" fill="currentColor"/></svg>