<svg viewBox="0 0 250 175" fill="none" xmlns="http://www.w3.org/2000/svg"><path fill-rule="evenodd" clip-rule="evenodd" d="M101.58.12C83.232 1.992 69.506 8.212 57.575 20.061c-11.745 11.664-17.6 24.36-20.006 43.375-.182 1.438-.552 2.375-.94 2.375-1.305 0-10.58 5.092-14.005 7.688C6.89 85.43-1.772 104.88.304 123.617c3.063 27.627 22.383 47.283 49.776 50.64 5.979.733 148.536.768 155 .038 22.002-2.483 38.867-17.391 43.253-38.234 2.551-12.119 1.361-22.987-3.636-33.215-3.953-8.091-9.699-14.569-17.438-19.66-3.787-2.491-3.975-2.701-3.688-4.125 4.337-21.553-5.466-41.66-24.525-50.302-9.948-4.51-21.098-4.972-32.141-1.33l-4.675 1.542-1.325-1.704c-10.27-13.204-24.816-22.476-40.585-25.872C115.696.399 105.586-.29 101.58.12Zm18.982 13.924c13.892 4.106 24.242 11.638 32.639 23.753 2.297 3.314 4.675 5.014 7.012 5.014.954 0 3.749-.907 6.211-2.015 6.523-2.937 10.077-3.654 16.406-3.307 8.26.452 14.697 3.167 19.839 8.367 5.716 5.782 8.999 13.27 9.517 21.71.229 3.722.078 5.24-.867 8.75-.63 2.334-1.24 5.387-1.358 6.783-.184 2.193-.032 2.753 1.122 4.124.734.872 3.373 2.64 5.865 3.926 10.225 5.281 18.333 16.503 19.861 27.49.735 5.278.647 7.746-.467 13.172-3.207 15.624-15.975 27.495-32.262 29.995-2.411.37-26.897.491-78.75.388l-75.25-.149-4.5-1.349c-16.405-4.917-27.8-16.001-31.518-30.659-3.59-14.152-1.19-26.652 7.305-38.04 5.117-6.86 11.784-11.816 20.463-15.213 5.19-2.03 7.33-4.01 7.682-7.101.133-1.167.487-4.64.788-7.72C51.568 48.98 56.89 37.717 66.074 28.57c8.334-8.297 19.427-13.827 31.586-15.744 1.606-.253 6.408-.38 10.67-.283 6.588.15 8.422.375 12.232 1.501Zm1.426 36.5c-3.263 1.418-3.158.17-3.158 37.492 0 18.577-.153 33.775-.341 33.775-.187 0-5.081-4.682-10.875-10.404-5.839-5.767-11.254-10.695-12.15-11.056-2.684-1.085-5.807.411-7.438 3.565-1.743 3.371-1.41 3.824 14.975 20.326 17.567 17.694 19.141 19.069 21.829 19.069 2.689 0 4.263-1.375 21.83-19.069 16.384-16.502 16.717-16.955 14.974-20.326-1.63-3.154-4.753-4.65-7.438-3.565-.896.361-6.31 5.289-12.15 11.056-5.793 5.722-10.687 10.404-10.875 10.404-.187 0-.341-15.198-.341-33.775 0-37.537.134-36.029-3.323-37.473-2.197-.918-3.444-.922-5.519-.02Z" fill="currentColor"/></svg>