<svg viewBox="0 0 250 175" fill="none" xmlns="http://www.w3.org/2000/svg"><path fill-rule="evenodd" clip-rule="evenodd" d="M99.68.337c-9.362 1.002-16.666 3.125-25 7.267-15.677 7.792-28.232 22.329-33.668 38.985-1.587 4.865-2.833 10.668-3.352 15.616l-.326 3.115-4.702 2.228c-6.513 3.085-11.227 6.35-15.941 11.04C-.813 96.004-5.003 122.51 6.276 144.452c7.826 15.227 20.683 24.96 38.38 29.054 4.467 1.033 5.483 1.049 79.774 1.213 50.986.113 76.862-.005 80.25-.366 28.13-3.002 46.935-25.894 44.645-54.349-1.195-14.838-9.044-28.044-21.658-36.438l-4.35-2.894.364-2.291c1.198-7.524 1.018-15.115-.501-21.113-.443-1.748-1.917-5.476-3.277-8.284-2.084-4.303-3.188-5.854-7.034-9.877-8.77-9.174-17.321-13.214-29.811-14.083-5.024-.35-11.08.595-17.111 2.668l-3.733 1.283-1.733-2.193c-5.827-7.371-15.86-15.567-24.192-19.763C125.378 1.523 111.782-.958 99.68.337Zm20.884 13.704c5.442 1.612 12.708 4.974 16.899 7.82 4.179 2.838 10.769 9.201 13.52 13.055 6.238 8.737 7.798 9.34 15.357 5.936 6.417-2.889 10.281-3.68 16.384-3.35 11.872.64 20.88 6.508 25.847 16.839 4.014 8.35 4.706 16.183 2.151 24.357-1.434 4.59-1.437 4.618-.559 6.917.931 2.438.872 2.391 7.868 6.224 7.434 4.073 14.373 12.323 17.2 20.452 2.521 7.251 2.421 16.643-.26 24.421-2.027 5.881-4.182 9.251-9.041 14.141-3.606 3.628-5.046 4.675-9.5 6.906-3.86 1.933-6.544 2.891-10.136 3.617-4.758.962-6.862.984-80.5.833-69.41-.142-75.87-.224-78.742-1.007-9.032-2.463-17.195-7.031-22.697-12.702-8.352-8.607-12.383-19.629-11.762-32.161.325-6.584 1.268-10.739 3.585-15.811 5.23-11.444 14.379-19.757 26.372-23.96 3.97-1.39 6.241-3.086 6.608-4.933.115-.576.325-3.297.466-6.047 1.267-24.595 17.934-45.215 41.467-51.304 6.523-1.689 8.611-1.898 17.089-1.715 6.829.148 8.641.364 12.384 1.472Z" fill="currentColor"/></svg>